<?xml version="1.0" encoding="iso-8859-1"?>
<!-- Generator: Adobe Illustrator 19.0.0, SVG Export Plug-In . SVG Version: 6.00 Build 0)  -->
<svg version="1.1" id="Capa_1" xmlns="http://www.w3.org/2000/svg" xmlns:xlink="http://www.w3.org/1999/xlink" x="0px" y="0px"
	 viewBox="0 0 512 512" style="enable-background:new 0 0 512 512;" xml:space="preserve">
<g>
	<g>
		<path d="M492,0H20C8.954,0,0,8.954,0,20v472c0,11.046,8.954,20,20,20h472c11.046,0,20-8.954,20-20V20C512,8.954,503.046,0,492,0z
			 M197.333,40h117.333v117.333H197.333V40z M197.333,197.333h117.333v117.333H197.333V197.333z M157.333,472H40V354.667h117.333
			V472z M157.333,314.666H40V197.333h117.333V314.666z M157.333,157.333H40V40h117.333V157.333z M314.667,472H197.333V354.667
			h117.334V472z M472,472H354.667V354.667H472V472z M472,314.666H354.667V197.333H472V314.666z M472,157.333H354.667V40H472V157.333
			z"/>
	</g>
</g>
<g>
</g>
<g>
</g>
<g>
</g>
<g>
</g>
<g>
</g>
<g>
</g>
<g>
</g>
<g>
</g>
<g>
</g>
<g>
</g>
<g>
</g>
<g>
</g>
<g>
</g>
<g>
</g>
<g>
</g>
</svg>
