<?xml version="1.0" encoding="iso-8859-1"?>
<!-- Generator: Adobe Illustrator 19.0.0, SVG Export Plug-In . SVG Version: 6.00 Build 0)  -->
<svg version="1.1" id="Capa_1" xmlns="http://www.w3.org/2000/svg" xmlns:xlink="http://www.w3.org/1999/xlink" x="0px" y="0px"
	 viewBox="0 0 512 512" style="enable-background:new 0 0 512 512;" xml:space="preserve">
<circle style="fill:#595959;" cx="251.661" cy="242.983" r="234.305"/>
<path d="M251.661,485.966c-133.979,0-242.983-109-242.983-242.983C8.678,109.004,117.682,0,251.661,0
	c133.983,0,242.983,109.004,242.983,242.983C494.644,376.966,385.644,485.966,251.661,485.966z M251.661,17.356
	c-124.412,0-225.627,101.215-225.627,225.627S127.249,468.61,251.661,468.61s225.627-101.215,225.627-225.627
	S376.073,17.356,251.661,17.356z"/>
<path style="fill:#595959;" d="M251.661,43.39c-110.232,0-199.593,89.361-199.593,199.593"/>
<path d="M52.068,251.661c-4.79,0-8.678-3.888-8.678-8.678c0-114.84,93.431-208.271,208.271-208.271c4.79,0,8.678,3.888,8.678,8.678
	s-3.888,8.678-8.678,8.678c-105.272,0-190.915,85.643-190.915,190.915C60.746,247.773,56.858,251.661,52.068,251.661z"/>
<circle style="fill:#288EEA;" cx="251.661" cy="242.983" r="86.78"/>
<path d="M251.661,338.441c-52.636,0-95.458-42.821-95.458-95.458s42.821-95.458,95.458-95.458s95.458,42.821,95.458,95.458
	S304.297,338.441,251.661,338.441z M251.661,164.881c-43.064,0-78.102,35.037-78.102,78.102s35.037,78.102,78.102,78.102
	s78.102-35.037,78.102-78.102S294.725,164.881,251.661,164.881z"/>
<circle style="fill:#777777;" cx="251.661" cy="242.983" r="43.39"/>
<path d="M251.661,295.051c-28.711,0-52.068-23.357-52.068-52.068s23.357-52.068,52.068-52.068s52.068,23.357,52.068,52.068
	S280.372,295.051,251.661,295.051z M251.661,208.271c-19.139,0-34.712,15.573-34.712,34.712s15.573,34.712,34.712,34.712
	s34.712-15.573,34.712-34.712S270.8,208.271,251.661,208.271z"/>
<path style="fill:#FFDD95;" d="M442.273,234.305l-69.12-8.678v-82.441c0-11.98-9.715-21.695-21.695-21.695
	c-11.98,0-21.695,9.715-21.695,21.695v91.119v43.39v70.6c0,15.933,11.138,29.21,26.034,32.625v122.403H468.61V380.919
	c14.896-3.419,26.034-16.692,26.034-32.625v-61.618C494.644,257.753,471.196,234.305,442.273,234.305z"/>
<path d="M468.61,512H355.797c-4.79,0-8.678-3.888-8.678-8.678V387.241c-15.625-6.417-26.034-21.573-26.034-38.947V143.186
	c0-16.748,13.629-30.373,30.373-30.373s30.373,13.624,30.373,30.373v74.782l61.006,7.658c33.406,0.304,60.485,27.57,60.485,61.049
	v61.618c0,17.369-10.409,32.521-26.034,38.942v116.085C477.288,508.112,473.4,512,468.61,512z M364.475,494.644h95.458V380.919
	c0-4.048,2.794-7.55,6.738-8.457c11.359-2.612,19.295-12.548,19.295-24.164v-61.622c0-24.094-19.604-43.694-43.694-43.694
	c-0.36,0-0.725-0.022-1.08-0.069l-69.12-8.678c-4.343-0.542-7.598-4.235-7.598-8.609v-82.441c0-7.177-5.84-13.017-13.017-13.017
	c-7.177,0-13.017,5.84-13.017,13.017v205.108c0,11.624,7.936,21.56,19.295,24.164c3.94,0.907,6.738,4.413,6.738,8.461V494.644z"/>
<path d="M373.153,277.695c-4.79,0-8.678-3.888-8.678-8.678v-43.39c0-4.79,3.888-8.678,8.678-8.678c4.79,0,8.678,3.888,8.678,8.678
	v43.39C381.831,273.807,377.943,277.695,373.153,277.695z"/>
<path d="M407.864,269.017c-4.79,0-8.678-3.888-8.678-8.678v-26.034c0-4.79,3.888-8.678,8.678-8.678s8.678,3.888,8.678,8.678v26.034
	C416.542,265.129,412.655,269.017,407.864,269.017z"/>
<path d="M442.576,269.017c-4.79,0-8.678-3.888-8.678-8.678v-26.034c0-4.79,3.888-8.678,8.678-8.678s8.678,3.888,8.678,8.678v26.034
	C451.254,265.129,447.366,269.017,442.576,269.017z"/>
<g>
</g>
<g>
</g>
<g>
</g>
<g>
</g>
<g>
</g>
<g>
</g>
<g>
</g>
<g>
</g>
<g>
</g>
<g>
</g>
<g>
</g>
<g>
</g>
<g>
</g>
<g>
</g>
<g>
</g>
</svg>
